HIERARCHY
ROOT Hips
{
  OFFSET 0 0 0
  CHANNELS 6 Xposition Yposition Zposition Zrotation Yrotation Xrotation
  JOINT LeftThigh
  {
    OFFSET 8.409438 0 -5.917753
    CHANNELS 3 Zrotation Yrotation Xrotation
    JOINT LeftLeg
    {
      OFFSET 0 0 -42.358652
      CHANNELS 3 Zrotation Yrotation Xrotation
      JOINT LeftFoot
      {
        OFFSET 0 0 -39.357303
        CHANNELS 3 Zrotation Yrotation Xrotation
      }
    }
  }
  JOINT RightThigh
  {
    OFFSET -8.409438 0 -5.917753
    CHANNELS 3 Zrotation Yrotation Xrotation
    JOINT RightLeg
    {
      OFFSET 0 0 -42.358652
      CHANNELS 3 Zrotation Yrotation Xrotation
      JOINT RightFoot
      {
        OFFSET 0 0 -39.357303
        CHANNELS 3 Zrotation Yrotation Xrotation
      }
    }
  }
  JOINT SpineLow
  {
    OFFSET 0 0 4.719101
    CHANNELS 3 Zrotation Yrotation Xrotation
    JOINT SpineMid
    {
      OFFSET 0 0 12.899191
      CHANNELS 3 Zrotation Yrotation Xrotation
      JOINT Chest
      {
        OFFSET 0 0 12.899191
        CHANNELS 3 Zrotation Yrotation Xrotation
        JOINT LeftShoulder
        {
          OFFSET 7.550562 1.41573 9.438202
          CHANNELS 3 Zrotation Yrotation Xrotation
          JOINT LeftArm
          {
            OFFSET 9.155056 0 4.247191
            CHANNELS 3 Zrotation Yrotation Xrotation
            JOINT LeftForearm
            {
              OFFSET 0 0 25.771955
              CHANNELS 3 Zrotation Yrotation Xrotation
              JOINT LeftHand
              {
                OFFSET 0 0 25.197169
                CHANNELS 3 Zrotation Yrotation Xrotation
              }
            }
          }
        }
        JOINT RightShoulder
        {
          OFFSET -7.550562 1.41573 9.438202
          CHANNELS 3 Zrotation Yrotation Xrotation
          JOINT RightArm
          {
            OFFSET -9.155056 0 4.247191
            CHANNELS 3 Zrotation Yrotation Xrotation
            JOINT RightForearm
            {
              OFFSET 0 0 -25.771955
              CHANNELS 3 Zrotation Yrotation Xrotation
              JOINT RightHand
              {
                OFFSET 0 0 -25.197169
                CHANNELS 3 Zrotation Yrotation Xrotation
              }
            }
          }
        }
        JOINT Neck
        {
          OFFSET 0 0 15.101124
          CHANNELS 3 Zrotation Yrotation Xrotation
          JOINT Head
          {
            OFFSET 0 0 11.325843
            CHANNELS 3 Zrotation Yrotation Xrotation
            End Site
            {
              OFFSET 0 0 14.157303
            }
          }
        }
      }
    }
  }
}
MOTION
Frames: 16
Frame Time: 0.0
0.0  93.25843  0.0  -4.681266  -45.245993  -90.564906  46.068969  -26.328651  -41.557548  -3.388601  11.702257  40.85857  5.11607  2.220458  4.51154  -16.273409  20.376589  -12.705089  1.587421  9.866964  33.163626  2.521621  3.940393  -5.938558  3.056482  -0.013813  0.277012  8.354306  -0.072656  0.754052  8.354306  -0.072656  0.754052  -13.942543  7.73414  -0.092757  -131.353407  62.227127  -79.987339  -32.857831  11.360401  84.932198  80.354164  -9.010363  2.399618  -4.208881  -13.08405  17.01581  91.856062  35.473628  32.270344  -5.158923  -8.27588  -117.981533  76.454553  -18.286858  -12.83139  -14.621782  1.368255  3.901532  -10.975077  0.933498  2.96077  
0.0  93.25843  0.0  -4.479523  -44.843855  -90.458803  45.931701  -26.128268  -41.499655  -3.028221  11.627849  40.345869  4.930291  2.152598  4.55421  -16.108633  20.392056  -12.421535  0.517354  10.227177  32.81331  3.39678  4.286843  -6.058663  3.033851  0.030047  0.146047  8.292877  0.06368  0.402248  8.292876  0.06368  0.402249  -14.903778  7.541946  0.442631  -130.360923  62.931043  -79.504764  -33.481382  11.470133  84.196644  80.440152  -9.372537  2.207358  -5.134679  -13.258058  17.222898  92.687709  34.64701  33.097034  -6.450922  -8.525849  -116.963331  76.06321  -18.470403  -12.653282  -14.971332  1.515369  4.630921  -11.240086  1.023846  3.51263  
0.0  93.25843  0.0  -4.262969  -44.408324  -90.318383  45.896396  -25.871696  -41.335695  -2.776501  11.621287  39.692358  4.744781  2.108749  4.568532  -15.553359  20.364959  -12.023483  0.103739  10.197455  32.523977  3.579253  4.421224  -6.147368  2.907792  0.028797  -0.009009  7.948151  0.079665  -0.021126  7.948151  0.079664  -0.021126  -15.177573  7.794153  0.955765  -129.827488  63.568012  -79.280136  -33.541869  10.844352  83.565997  80.462331  -9.317502  2.054591  -5.310632  -13.341978  17.195018  93.939173  33.263847  34.027851  -7.584253  -8.810562  -116.125342  75.228385  -18.819391  -11.643507  -14.867299  1.980864  5.434815  -11.168019  1.354478  4.12682  
0.0  93.25843  0.0  -4.061442  -43.886962  -90.356644  45.602122  -25.753601  -41.13814  -2.553983  11.73871  39.064418  4.602984  2.097188  4.623977  -14.327081  20.214516  -11.181491  -0.114069  9.940789  32.30576  3.143028  4.559879  -6.209464  2.758148  0.016611  -0.118244  7.539023  0.05881  -0.320832  7.539022  0.05881  -0.320832  -15.25663  8.0885  1.268908  -129.426595  64.424357  -79.068813  -33.547315  9.983076  82.962059  80.331332  -9.166029  2.008144  -5.18503  -13.5317  16.74996  94.641007  31.800111  34.692182  -8.252734  -9.284303  -115.261397  74.818263  -18.797431  -10.577648  -14.719842  2.476623  6.161638  -11.06446  1.710414  4.683428  
0.0  93.25843  0.0  -3.873354  -43.359758  -90.475592  45.290671  -25.622626  -40.977655  -2.280938  11.730898  38.711322  4.40472  2.112904  4.630799  -12.845694  20.145919  -10.148025  -0.346459  9.459692  31.992734  2.450733  4.724109  -6.222506  2.655418  0.019556  -0.204117  7.2581  0.075773  -0.555017  7.258099  0.075773  -0.555017  -15.366161  8.365867  1.778831  -128.77935  65.235632  -78.260937  -33.634689  9.266636  82.395031  80.159091  -9.016994  1.969778  -5.266171  -13.766322  16.444031  94.669194  30.790348  35.030534  -8.236307  -9.458041  -114.77677  74.522063  -18.698832  -9.470572  -14.731538  2.881268  6.786222  -11.079937  1.999017  5.161667  
0.0  93.25843  0.0  -3.159736  -43.69719  -90.896534  45.698199  -25.071689  -40.674564  -2.264362  11.855654  38.289727  4.399889  2.12283  4.758167  -10.665972  20.640563  -9.267449  -0.692784  8.881538  31.552722  2.105053  5.021713  -6.342247  2.778119  0.092437  -0.239128  7.592752  0.279724  -0.642038  7.592752  0.279724  -0.642038  -15.771212  8.48412  2.164738  -127.332307  66.01995  -78.429469  -33.842587  10.310343  83.258951  79.895289  -9.029181  1.96367  -5.770022  -13.850377  16.362599  94.267518  30.484736  35.109393  -7.78539  -9.742075  -114.950471  74.648725  -18.899981  -8.637563  -15.053045  3.150354  7.129716  -11.325522  2.189062  5.427523  
0.0  93.25843  0.0  -2.747412  -43.383669  -91.040306  45.611021  -24.587096  -40.583365  -2.266497  11.911416  38.009713  4.356064  2.124875  4.796215  -9.432856  20.98974  -8.483099  -1.100135  8.403277  31.028872  1.61417  5.049133  -6.385803  2.829788  0.157269  -0.251494  7.733324  0.458594  -0.667978  7.733324  0.458594  -0.667977  -16.117672  8.344368  2.566131  -127.182956  66.649978  -77.773854  -34.395066  10.295834  82.853559  79.636679  -9.129223  2.082198  -6.206309  -13.898845  16.475702  93.586024  30.548824  34.91284  -7.460138  -9.627193  -114.848179  74.680342  -18.717666  -8.191562  -15.446203  3.253842  7.235443  -11.621995  2.259578  5.511631  
0.0  93.25843  0.0  -2.222149  -43.049166  -91.293312  44.972426  -24.060715  -40.56452  -1.739465  11.688622  38.248599  4.256568  2.035791  4.772384  -8.514158  21.459385  -7.827133  -1.467876  8.085841  30.467138  1.427953  4.967509  -6.360589  2.859212  0.213781  -0.229392  7.813465  0.610499  -0.60078  7.813465  0.610499  -0.60078  -15.945994  8.29794  2.888788  -127.763646  67.215336  -77.500923  -34.915051  10.211217  82.577574  85.151098  -3.916099  1.404485  -7.361441  -13.94876  16.281224  94.069306  29.920009  35.067083  -7.415205  -9.343472  -114.709637  74.840282  -18.540853  -7.79702  -15.78227  3.305714  7.12696  -11.873886  2.297403  5.433503  
0.0  93.25843  0.0  -1.836384  -42.66966  -91.485232  44.601916  -23.872332  -40.420529  -1.384452  11.755307  38.14741  4.282834  2.021766  4.780014  -8.093025  21.905266  -7.372183  -1.824567  7.740556  29.992425  1.402197  4.995549  -6.392652  2.890939  0.265532  -0.190711  7.900251  0.747382  -0.488742  7.900251  0.747382  -0.488742  -15.974794  8.004561  2.929774  -129.2289  67.648847  -78.318539  -35.147861  9.920296  82.459403  85.142318  -3.930125  1.608087  -7.356611  -13.952967  16.446753  93.545522  29.7132  34.805284  -7.864786  -8.982328  -114.459835  75.082478  -18.443696  -7.317868  -16.062691  3.246927  6.929012  -12.082448  2.255246  5.285138  
0.0  93.25843  0.0  -1.65155  -42.281731  -91.512747  44.042673  -23.903325  -40.43538  -0.734362  11.777315  38.195308  4.2233  2.005142  4.723896  -8.007076  22.259919  -7.103533  -2.236241  7.383063  29.557082  1.37752  4.973945  -6.348776  2.907561  0.279316  -0.141681  7.946199  0.779228  -0.353097  7.946199  0.779228  -0.353097  -15.928691  7.733387  2.709313  -131.039002  67.964569  -79.67892  -35.003539  9.430046  82.513914  87.393716  -1.910268  1.812984  -7.260004  -13.970384  16.458849  92.158925  29.774481  33.977355  -8.80338  -8.63014  -114.122054  75.275066  -19.064187  -7.691536  -16.75543  2.987497  6.57093  -12.597566  2.062553  5.013547  
0.0  93.25843  0.0  -1.587858  -41.712392  -91.359402  43.42694  -24.005208  -40.572327  -0.045815  11.85085  38.248937  4.249213  1.990166  4.689844  -8.539094  22.464408  -7.111506  -2.1246  7.105316  29.124324  1.249923  4.960245  -6.267579  2.920414  0.265682  -0.112667  7.981709  0.738587  -0.275408  7.981709  0.738587  -0.275408  -15.948277  7.627529  2.547817  -132.528454  68.212321  -80.760036  -34.62785  8.762897  82.708867  87.549954  -1.712441  2.128783  -7.092166  -13.866914  16.472959  91.705489  29.387508  33.667306  -9.450953  -8.250869  -113.641938  75.308508  -18.998481  -6.407902  -17.013061  2.975984  6.27349  -12.789064  2.059457  4.791402  
0.0  93.25843  0.0  -1.848414  -40.856818  -90.993665  42.815074  -24.26232  -40.850909  0.381961  12.140363  38.097795  4.298722  2.04271  4.575775  -9.592431  22.357382  -7.204099  -2.313289  6.890882  28.720029  1.209006  4.910852  -6.09277  2.887787  0.219481  -0.081388  7.892934  0.608656  -0.195926  7.892933  0.608656  -0.195927  -16.11338  7.458499  2.339819  -133.544914  68.764869  -81.252545  -34.466927  7.691238  82.702732  85.899507  -3.885265  5.521121  -7.098808  -13.868294  16.325811  91.428809  28.975737  33.398637  -10.039888  -7.949857  -113.02681  75.34151  -18.674524  -4.725975  -17.30096  2.9345  5.978867  -13.003056  2.033741  4.570682  
0.0  93.25843  0.0  -1.961587  -40.082918  -90.775822  42.301353  -24.260669  -41.172177  0.72152  12.226372  38.170322  4.563931  2.122261  4.535536  -10.215669  22.416101  -7.17418  -2.25023  6.732267  28.363987  1.187639  4.855857  -5.963851  2.88358  0.185955  -0.042266  7.881794  0.512492  -0.093193  7.881793  0.512492  -0.093193  -16.152346  7.442317  2.153051  -134.486036  69.166103  -81.828477  -34.045821  6.802805  82.87425  85.604005  -3.731049  5.523989  -6.98229  -13.734557  16.289458  90.84571  28.974318  32.835225  -10.673146  -7.663085  -112.307266  75.353293  -18.133001  -2.637751  -17.563033  2.944472  5.761237  -13.198512  2.044965  4.409012  
0.0  93.25843  0.0  -2.207805  -39.364113  -90.638252  42.024457  -24.239583  -41.493873  0.783222  12.31241  38.240523  4.825006  2.184634  4.565059  -10.51936  22.398349  -6.766039  -2.420792  6.519824  27.974384  1.294598  4.806411  -5.849371  2.891391  0.08747  -0.003854  7.903347  0.239158  -7.1E-5  7.903347  0.239158  -7.1E-5  -16.25267  7.725074  1.997908  -135.22485  69.821939  -82.211302  -34.044701  6.226276  82.800762  85.414666  -3.631579  5.427546  -7.887442  -13.667358  16.012134  91.367784  28.627438  32.931211  -11.513608  -7.147711  -111.600748  75.262167  -17.45114  -0.339675  -17.925538  3.103348  5.613937  -13.470708  2.165235  4.304956  
0.0  93.25843  0.0  -2.429027  -38.432187  -90.440582  41.717284  -23.949664  -41.920052  0.583236  12.387294  38.320685  5.059307  2.215882  4.575748  -10.780471  22.35165  -6.161599  -2.559384  6.297562  27.391744  1.182665  4.810897  -5.761452  2.888143  0.02434  0.017212  7.89447  0.064368  0.049875  7.894471  0.064368  0.049875  -16.391361  7.874839  1.81517  -136.326056  70.314896  -82.925086  -33.949581  5.992521  82.603653  85.507899  -3.562589  5.241227  -7.860493  -13.568297  15.972661  90.560166  28.976516  32.424627  -12.758738  -6.214871  -110.898868  75.273397  -16.714907  1.765577  -18.25749  3.200831  5.568896  -13.720059  2.236806  4.275863  
0.0  93.25843  0.0  -2.446695  -38.109772  -90.539133  42.003624  -23.527643  -42.12815  0.293502  12.421414  38.474671  5.257146  2.221816  4.600081  -10.004534  22.410946  -5.163057  -3.298007  5.962047  26.808446  1.085139  4.920458  -5.705493  2.994386  -0.158983  1.42E-4  8.184962  -0.433817  -0.019276  8.184962  -0.433817  -0.019276  -16.494087  8.973294  1.877415  -137.76369  70.839285  -84.049402  -33.822406  5.952734  82.395923  85.872543  -3.459757  4.784547  -8.316951  -12.755061  16.109137  89.986288  29.198  32.104674  -14.482998  -3.759258  -111.109929  74.236326  -16.95001  4.182983  -19.055868  3.682913  5.575656  -14.321978  2.591546  4.30029  
